
Sinopse e detalhes

Após 30 anos como parceiro no Departamento de Polícia de Nova York, os condecorados detetives David Fisk (Al Pacino) e Thomas Cowan (Robert De Niro) deveriam estar aposentados, mas não estão. Eles são chamados para investigar o assassinato de um conhecido cafetão, que parece ter ligação com um caso envolvido com eles há alguns anos atrás. Como no crime original a vítima é um criminoso suspeito, cujo corpo foi encontrado junto a um poema que justifica o assassinato. Quando outros crimes do tipo acontecem fica nítido que eles estão às voltas com um serial killer.


Format                         : Matroska
Format version                 : Version 2
File size                      : 767 MiB
Duration                       : 1h 40mn
Overall bit rate               : 1 064 Kbps
Movie name                     : Rio (MKV by TofuShoyu)
Encoded date                   : UTC 2013-06-11 08:55:50
Writing application            : mkvmerge v5.8.0 ('No Sleep / Pillow') built on Sep  2 2012 15:37:04
Writing library                : libebml v1.2.3 + libmatroska v1.3.0

Video
ID                             : 1
Format                         : AVC
Format/Info                    : Advanced Video Codec
Format profile                 : High@L4.1
Format settings, CABAC         : Yes
Format settings, ReFrames      : 4 frames
Muxing mode                    : Header stripping
Codec ID                       : V_MPEG4/ISO/AVC
Duration                       : 1h 40mn
Bit rate                       : 659 Kbps
Width                          : 720 pixels
Height                         : 400 pixels
Display aspect ratio           : 16:9
Frame rate mode                : Constant
Frame rate                     : 23.976 fps
Color space                    : YUV
Chroma subsampling             : 4:2:0
Bit depth                      : 8 bits
Scan type                      : Progressive
Bits/(Pixel*Frame)             : 0.095
Stream size                    : 475 MiB (62%)
Title                          : As Duas Faces da Lei ( Zagor Lukas )
Writing library                : x264 core 130 r2273 b3065e6
Encoding settings              : cabac=1 / ref=3 / deblock=1:0:0 / analyse=0x3:0x113 / me=hex / subme=7 / psy=1 / psy_rd=1.00:0.00 / mixed_ref=1 / me_range=16 / chroma_me=1 / trellis=1 / 8x8dct=1 / cqm=0 / deadzone=21,11 / fast_pskip=1 / chroma_qp_offset=-2 / threads=3 / lookahead_threads=1 / sliced_threads=0 / nr=0 / decimate=1 / interlaced=0 / bluray_compat=0 / constrained_intra=0 / bframes=3 / b_pyramid=2 / b_adapt=1 / b_bias=0 / direct=1 / weightb=1 / open_gop=0 / weightp=2 / keyint=240 / keyint_min=23 / scenecut=40 / intra_refresh=0 / rc_lookahead=40 / rc=crf / mbtree=1 / crf=23.0 / qcomp=0.60 / qpmin=0 / qpmax=69 / qpstep=4 / vbv_maxrate=24000 / vbv_bufsize=24000 / crf_max=0.0 / nal_hrd=none / ip_ratio=1.40 / aq=1:1.00
Language                       : Portuguese
Default                        : Yes
Forced                         : No

Audio
ID                             : 2
Format                         : AC-3
Format/Info                    : Audio Coding 3
Mode extension                 : CM (complete main)
Format settings, Endianness    : Big
Muxing mode                    : Header stripping
Codec ID                       : A_AC3
Duration                       : 1h 40mn
Bit rate mode                  : Constant
Bit rate                       : 384 Kbps
Channel(s)                     : 6 channels
Channel positions              : Front: L C R, Side: L R, LFE
Sampling rate                  : 48.0 KHz
Bit depth                      : 16 bits
Compression mode               : Lossy
Stream size                    : 277 MiB (36%)
Title                          : por
Language                       : Portuguese
Default                        : Yes
Forced                         : No

Text #1
ID                             : 3
Format                         : VobSub
Muxing mode                    : zlib
Codec ID                       : S_VOBSUB
Codec ID/Info                  : The same subtitle format used on DVDs
Title                          : por
Language                       : Portuguese
Default                        : No
Forced                         : No

Text #2
ID                             : 4
Format                         : VobSub
Muxing mode                    : zlib
Codec ID                       : S_VOBSUB
Codec ID/Info                  : The same subtitle format used on DVDs
Title                          : por
Language                       : Portuguese
Default                        : No
Forced                         : No

Text #3
ID                             : 5
Format                         : VobSub
Muxing mode                    : zlib
Codec ID                       : S_VOBSUB
Codec ID/Info                  : The same subtitle format used on DVDs
Title                          : eng
Language                       : English
Default                        : No
Forced                         : No

Text #4
ID                             : 6
Format                         : VobSub
Muxing mode                    : zlib
Codec ID                       : S_VOBSUB
Codec ID/Info                  : The same subtitle format used on DVDs
Title                          : eng
Language                       : English
Default                        : No
Forced                         : No

Text #5
ID                             : 7
Format                         : VobSub
Muxing mode                    : zlib
Codec ID                       : S_VOBSUB
Codec ID/Info                  : The same subtitle format used on DVDs
Title                          : eng
Language                       : English
Default                        : No
Forced                         : No

Text #6
ID                             : 8
Format                         : ASS
Codec ID                       : S_TEXT/ASS
Codec ID/Info                  : Advanced Sub Station Alpha
Compression mode               : Lossless
Title                          : Credito
Language                       : Portuguese
Default                        : Yes
Forced                         : No

Menu
00:00:00.000                   : en:Chapter 01
00:08:37.400                   : en:Chapter 02
00:16:06.767                   : en:Chapter 03
00:24:40.267                   : en:Chapter 04
00:30:15.667                   : en:Chapter 05
00:39:47.234                   : en:Chapter 06
00:49:10.135                   : en:Chapter 07
00:56:49.902                   : en:Chapter 08
01:04:40.503                   : en:Chapter 09
01:12:58.404                   : en:Chapter 10
01:20:30.372                   : en:Chapter 11
01:29:13.405                   : en:Chapter 12

